<svg width="22" height="26" viewBox="0 0 22 26" fill="none" xmlns="http://www.w3.org/2000/svg">
<path fill-rule="evenodd" clip-rule="evenodd" d="M11.0003 2C8.51113 2 6.55591 3.93676 6.55591 6.25C6.55591 8.56324 8.51113 10.5 11.0003 10.5C13.4895 10.5 15.4449 8.56324 15.4449 6.25C15.4449 3.93676 13.4895 2 11.0003 2ZM4.55591 6.25C4.55591 2.76425 7.47578 0 11.0003 0C14.525 0 17.4449 2.76425 17.4449 6.25C17.4449 9.73575 14.525 12.5 11.0003 12.5C7.47578 12.5 4.55591 9.73575 4.55591 6.25ZM14.5553 16.9579C12.2002 16.5696 9.80046 16.5696 7.44542 16.9579L7.16839 17.0036C4.59877 17.4272 2.66699 19.7303 2.66699 22.482C2.66699 23.3512 3.34098 24 4.1045 24H17.8962C18.6597 24 19.3337 23.3512 19.3337 22.482C19.3337 19.7303 17.4019 17.4272 14.8323 17.0036L14.5553 16.9579ZM14.8806 14.9845L15.1577 15.0301C18.7393 15.6207 21.3337 18.7987 21.3337 22.482C21.3337 24.394 19.825 26 17.8962 26H4.1045C2.17562 26 0.666992 24.394 0.666992 22.482C0.666992 18.7987 3.26143 15.6207 6.84303 15.0301L7.12007 14.9845C9.69058 14.5607 12.3101 14.5607 14.8806 14.9845Z" fill="white"/>
</svg>
